# xmcd
#
# Track frame offsets: 
#        150
#        14153
#        37573
#        56607
#        71243
#        99220
#        130926
#        157076
#        184347
#        208588
#
# Disc length: 3352 seconds
#
# Revision: 0
# Processed by: cddbd v1.5.2PL0 Copyright (c) Steve Scherf et al.
# Submitted via: ExactAudioCopy v0.95a5
#
DISCID=8a0d160a
DTITLE=Various Artist - Galicja Blues Festival
DYEAR=2004
DGENRE=Bluesq
TTITLE0=Kropla Zycia/ Za ptaki bez gniazd
TTITLE1=Kropla Zycia/ Wiedz
TTITLE2=Banaszak and The Best/ Ja To Sie Ciesze Byle Czym
TTITLE3=Big Fat Mama/ Family Affair
TTITLE4=Bluesnobile/ Got my mojo working
TTITLE5=Blueamobile/ I feel so bad
TTITLE6=Free Blues Band/ I don't care baby
TTITLE7=Free Blues Band/ I'm Red
TTITLE8=Griff Hamlin Band/ Reconsider Baby
TTITLE9=Griff Hamlin Band/ Me and My Guitar
EXTD=
EXTT0=
EXTT1=
EXTT2=
EXTT3=
EXTT4=
EXTT5=
EXTT6=
EXTT7=
EXTT8=
EXTT9=
PLAYORDER=
